<svg width="358" height="37" viewBox="0 0 358 37" fill="none" xmlns="http://www.w3.org/2000/svg">
<path d="M75.2473 5.95H77.5473V16.35H75.2473L70.2473 9.85V16.35H67.9473V5.95H70.1473L75.2473 12.65V5.95ZM87.5473 16.35L86.5473 14.15H82.1473L81.1473 16.35H78.6473L83.2473 5.95H85.4473L89.9473 16.35H87.5473ZM84.4473 9.05L83.1473 12.05H85.7473L84.4473 9.05ZM94.8473 7.95V16.35H92.5473V7.95H89.6473V5.95H97.8473V7.95H94.8473ZM99.5473 5.95H101.847V16.35H99.5473V5.95ZM113.147 14.95C112.047 15.95 110.847 16.45 109.247 16.45C107.647 16.45 106.447 15.95 105.347 14.95C104.247 13.95 103.747 12.65 103.747 11.15C103.747 9.65 104.247 8.35 105.347 7.35C106.447 6.35 107.647 5.85 109.247 5.85C110.847 5.85 112.047 6.35 113.147 7.35C114.247 8.35 114.747 9.65 114.747 11.15C114.747 12.65 114.247 13.95 113.147 14.95ZM112.347 11.15C112.347 10.25 112.047 9.45 111.447 8.75C110.847 8.05 110.147 7.75 109.247 7.75C108.347 7.75 107.647 8.05 107.047 8.75C106.447 9.45 106.147 10.15 106.147 11.15C106.147 12.05 106.447 12.85 107.047 13.55C107.647 14.25 108.347 14.55 109.247 14.55C110.147 14.55 110.847 14.25 111.447 13.55C112.047 12.85 112.347 12.05 112.347 11.15ZM123.947 5.95H126.247V16.35H123.947L118.947 9.85V16.35H116.647V5.95H118.847L123.947 12.65V5.95ZM136.247 16.35L135.247 14.15H130.947L129.947 16.35H127.447L132.047 5.95H134.247L138.747 16.35H136.247ZM133.147 9.05L131.847 12.05H134.447L133.147 9.05ZM139.947 16.35V5.95H142.247V14.25H146.647V16.35H139.947ZM157.147 14.35C158.247 14.35 159.247 13.85 159.947 12.95L161.447 14.45C160.247 15.75 158.847 16.45 157.247 16.45C155.647 16.45 154.347 15.95 153.247 14.95C152.247 13.95 151.647 12.65 151.647 11.15C151.647 9.65 152.147 8.35 153.247 7.25C154.347 6.25 155.647 5.75 157.147 5.75C158.847 5.75 160.247 6.45 161.447 7.75L160.047 9.35C159.347 8.45 158.447 7.95 157.347 7.95C156.447 7.95 155.747 8.25 155.147 8.85C154.547 9.45 154.247 10.15 154.247 11.15C154.247 12.15 154.547 12.85 155.147 13.45C155.547 14.05 156.347 14.35 157.147 14.35ZM170.547 16.35L169.547 14.15H165.147L164.147 16.35H161.647L166.347 5.95H168.547L173.047 16.35H170.547ZM167.447 9.05L166.147 12.05H168.747L167.447 9.05ZM181.547 5.95H183.847V16.35H181.547L176.547 9.85V16.35H174.247V5.95H176.447L181.547 12.65V5.95ZM191.247 14.35C192.347 14.35 193.347 13.85 194.047 12.95L195.547 14.45C194.347 15.75 192.947 16.45 191.347 16.45C189.747 16.45 188.447 15.95 187.347 14.95C186.347 13.95 185.747 12.65 185.747 11.15C185.747 9.65 186.247 8.35 187.347 7.25C188.447 6.25 189.647 5.75 191.247 5.75C192.947 5.75 194.347 6.45 195.547 7.75L194.147 9.35C193.447 8.45 192.547 7.95 191.447 7.95C190.547 7.95 189.847 8.25 189.247 8.85C188.647 9.45 188.347 10.15 188.347 11.15C188.347 12.15 188.647 12.85 189.247 13.45C189.647 14.05 190.347 14.35 191.247 14.35ZM204.847 5.95V8.05H199.647V10.15H204.347V12.15H199.647V14.35H204.947V16.45H197.247V5.95H204.847ZM215.547 9.45C215.547 11.15 214.847 12.15 213.547 12.65L216.147 16.35H213.247L210.947 13.05H209.347V16.35H207.047V5.95H210.947C212.547 5.95 213.747 6.25 214.447 6.75C215.147 7.35 215.547 8.25 215.547 9.45ZM212.747 10.65C213.047 10.35 213.147 9.95 213.147 9.45C213.147 8.95 213.047 8.55 212.747 8.25C212.447 8.05 211.947 7.95 211.147 7.95H209.447V11.05H211.147C211.847 11.05 212.447 10.95 212.747 10.65ZM67.9473 21.55H70.2473V31.95H67.9473V21.55ZM80.1473 21.55H82.4473V31.95H80.1473L75.1473 25.45V31.95H72.8473V21.55H75.0473L80.1473 28.25V21.55ZM87.4473 23.65C87.2473 23.85 87.1473 24.05 87.1473 24.35C87.1473 24.65 87.2473 24.85 87.5473 25.05C87.8473 25.25 88.4473 25.45 89.4473 25.65C90.4473 25.85 91.2473 26.25 91.7473 26.75C92.2473 27.25 92.5473 27.95 92.5473 28.85C92.5473 29.75 92.2473 30.55 91.5473 31.15C90.8473 31.75 89.9473 32.05 88.7473 32.05C87.1473 32.05 85.6473 31.45 84.2473 30.25L85.6473 28.55C86.7473 29.55 87.8473 30.05 88.7473 30.05C89.1473 30.05 89.5473 29.95 89.7473 29.75C89.9473 29.55 90.1473 29.35 90.1473 29.05C90.1473 28.75 90.0473 28.45 89.7473 28.35C89.4473 28.15 88.9473 27.95 88.2473 27.75C87.0473 27.45 86.1473 27.05 85.5473 26.65C84.9473 26.25 84.7473 25.45 84.7473 24.45C84.7473 23.45 85.1473 22.75 85.8473 22.15C86.5473 21.65 87.4473 21.35 88.5473 21.35C89.2473 21.35 89.9473 21.45 90.6473 21.75C91.3473 21.95 91.9473 22.35 92.4473 22.75L91.2473 24.45C90.3473 23.75 89.4473 23.45 88.4473 23.45C87.9473 23.35 87.6473 23.45 87.4473 23.65ZM98.8473 23.55V31.95H96.5473V23.55H93.6473V21.55H101.847V23.55H98.8473ZM103.447 21.55H105.747V31.95H103.447V21.55ZM112.747 23.55V31.95H110.447V23.55H107.547V21.55H115.747V23.55H112.747ZM120.147 29.25C120.547 29.75 121.047 29.95 121.747 29.95C122.447 29.95 122.947 29.75 123.347 29.25C123.747 28.75 123.947 28.15 123.947 27.25V21.55H126.247V27.35C126.247 28.85 125.847 30.05 124.947 30.85C124.147 31.65 123.047 32.05 121.747 32.05C120.447 32.05 119.347 31.65 118.547 30.85C117.747 30.05 117.247 28.85 117.247 27.35V21.55H119.547V27.25C119.547 28.15 119.747 28.75 120.147 29.25ZM133.047 23.55V31.95H130.747V23.55H127.847V21.55H136.047V23.55H133.047ZM145.147 21.55V23.65H139.947V25.75H144.647V27.75H139.947V29.95H145.247V31.95H137.547V21.55H145.147Z" fill="#BB0E3D"/>
<path d="M49.9616 18.597L39.9715 0.610352H3.84235C1.71513 0.610352 0 2.33662 0 4.46384V32.7301C0 34.8573 1.71513 36.5836 3.84235 36.5836H39.9715L49.9616 18.597Z" fill="#606061"/>
<path d="M48.9588 2.49215C48.2571 1.33388 46.9875 0.621094 45.6176 0.621094H42.6328L52.7566 18.6077L42.6328 36.5944H45.6176C46.9875 36.5944 48.2571 35.8816 48.9588 34.7233L57.9465 18.6077L48.9588 2.49215Z" fill="#BA1F40"/>
<path d="M23.9782 10.6006H21.3164V26.5937H23.9782V10.6006Z" fill="white"/>
<path d="M15.9823 10.6006V22.3281L8.66512 10.6006H5.99219V26.5937H8.66512V14.8661L15.9823 26.5937H18.6552V10.6006H15.9823Z" fill="white"/>
<path d="M36.6424 10.6006V17.2718H29.3141V10.6006H26.6523V26.5937H29.3141V19.9336H36.6424V26.5937H39.3042V10.6006H36.6424Z" fill="white"/>
</svg>
